<svg width="24.000000" height="24.000000" viewBox="0 0 24 24" fill="none" xmlns="http://www.w3.org/2000/svg" xmlns:xlink="http://www.w3.org/1999/xlink">
	<desc>
			Created with Pixso.
	</desc>
	<defs/>
	<path id="Path" d="M5.12 9.87C5.12 6.07 8.2 3 12 3C15.79 3 18.87 6.07 18.87 9.87L18.87 10.04C18.87 13.5 14.49 18.71 12.72 20.67C12.33 21.1 11.66 21.1 11.27 20.67C9.5 18.71 5.12 13.5 5.12 10.04L5.12 9.87Z" stroke="#87CEEB" stroke-opacity="1.000000" stroke-width="1.446800" stroke-linejoin="round"/>
	<path id="Path" d="M10 9.95C10 11.06 10.89 11.95 12 11.95C13.1 11.95 14 11.06 14 9.95L14 9.91C14 8.81 13.1 7.91 12 7.91C10.89 7.91 10 8.81 10 9.91" stroke="#87CEEB" stroke-opacity="1.000000" stroke-width="1.446800" stroke-linejoin="round" stroke-linecap="round"/>
</svg>
