<svg xmlns="http://www.w3.org/2000/svg" width="1453.096" height="393" viewBox="0 0 1453.096 393">
  <g id="CFVI_Logo_-_Green" data-name="CFVI Logo - Green" transform="translate(0.5 0.5)">
    <path id="Combined_Shape" data-name="Combined Shape" d="M1261.48,392,1331.239,0H1452l-69.174,392ZM852.427,348.768,736.7,123.746H881.153l66.429,132.22L1173.665,0h141.3l-309.14,348.768C985.648,371.244,958.541,392,921.063,392,885.287,392,865.109,372.986,852.427,348.768Zm-476.2,36.895L444.866,0h374.3l50.782,100.311H546.371l-8.652,50.158H724.089l48.325,93.956H520.987l-24.8,141.237Zm-175.532,0C80.159,385.663,0,313.03,0,215.609,0,88.79,121.112,0,268.755,0h152.29L403.192,100.312H250.88c-70.947,0-130.922,45.541-130.922,106.653,0,47.848,39.8,79.538,98.041,79.538h152.06l-17.645,99.16Z" fill="none" stroke="rgba(255,255,255,0.11)" stroke-miterlimit="10" stroke-width="1"/>
  </g>
</svg>
