<svg xmlns="http://www.w3.org/2000/svg" width="1997.096" height="540" viewBox="0 0 1997.096 540">
  <g id="CFVI_Logo_-_Green" data-name="CFVI Logo - Green" transform="translate(0.5 0.5)">
    <path id="Combined_Shape" data-name="Combined Shape" d="M1734.1,539,1830,0H1996l-95.091,539Zm-562.307-59.444L1012.712,170.15h198.571l91.317,181.8L1613.385,0h194.242L1382.665,479.556c-27.738,30.9-65,59.444-116.52,59.444C1216.965,539,1189.227,512.855,1171.794,479.556Zm-654.606,50.73L611.538,0h514.533L1195.88,137.93H751.073L739.179,206.9H995.372L1061.8,336.086H716.178l-34.087,194.2Zm-241.3,0C110.192,530.286,0,430.416,0,296.463,0,122.088,166.487,0,369.446,0H578.793L554.251,137.93H344.873c-97.527,0-179.973,62.619-179.973,146.647,0,65.791,54.707,109.365,134.773,109.365H508.7L484.446,530.286Z" fill="none" stroke="rgba(255,255,255,0.11)" stroke-miterlimit="10" stroke-width="1"/>
  </g>
</svg>
