<svg id="CFVI_Logo_-_Green" data-name="CFVI Logo - Green" xmlns="http://www.w3.org/2000/svg" width="148.095" height="40" viewBox="0 0 148.095 40">
  <path id="Combined_Shape" data-name="Combined Shape" d="M128.663,40l7.115-40H148.1l-7.056,40ZM86.942,35.589l-11.8-22.962H89.872l6.775,13.492L119.706,0h14.412l-31.53,35.589C100.53,37.882,97.765,40,93.943,40A7.426,7.426,0,0,1,86.942,35.589ZM38.373,39.353,45.374,0H83.55l5.179,10.236h-33l-.882,5.118H73.852l4.929,9.588H53.138l-2.53,14.412Zm-17.9,0C8.176,39.353,0,31.942,0,22,0,9.06,12.352,0,27.411,0H42.944L41.123,10.236H25.588c-7.236,0-13.353,4.648-13.353,10.883,0,4.883,4.059,8.116,10,8.116H37.743l-1.8,10.119Z" fill="#fff"/>
</svg>
