<svg width="50.000000" height="50.000000" viewBox="0 0 50 50" fill="none" xmlns="http://www.w3.org/2000/svg" xmlns:xlink="http://www.w3.org/1999/xlink">
	<desc>
			Created with Pixso.
	</desc>
	<defs/>
	<path id="path1314" d="M22.65 42.18L21.09 42.18C21.09 40.46 22.49 39.06 24.21 39.06L32.81 39.06C33.67 39.06 34.37 38.36 34.37 37.5C34.37 36.63 33.67 35.93 32.81 35.93L25.64 35.93L17.04 32.81L10.15 32.81L10.15 31.25L17.32 31.25L25.91 34.37L32.81 34.37C34.53 34.37 35.93 35.77 35.93 37.5C35.93 39.22 34.53 40.62 32.81 40.62L24.21 40.62C23.35 40.62 22.65 41.32 22.65 42.18Z" fill="#87CEEB" fill-opacity="1.000000" fill-rule="nonzero"/>
	<path id="path1316" d="M29.09 50L27.2 50L13.92 45.31L10.15 45.31L10.15 43.75L14.19 43.75L27.47 48.43L28.71 48.43L47.95 38.43C48.17 38.18 48.43 37.77 48.43 37.5C48.43 36.67 47.79 35.99 46.98 35.94L34.6 39.8L34.14 38.31L46.87 34.37C48.59 34.37 50 35.77 50 37.5C50 38.57 49.09 39.51 48.99 39.61L48.79 39.75L29.09 50Z" fill="#87CEEB" fill-opacity="1.000000" fill-rule="nonzero"/>
	<path id="path1318" d="M7.81 43.75L6.25 43.75L6.25 42.18L7.81 42.18L7.81 43.75Z" fill="#87CEEB" fill-opacity="1.000000" fill-rule="nonzero"/>
	<path id="path1320" d="M4.68 43.75L3.12 43.75L3.12 42.18L4.68 42.18L4.68 43.75Z" fill="#87CEEB" fill-opacity="1.000000" fill-rule="nonzero"/>
	<path id="path1322" d="M9.37 46.87L0 46.87L0 45.31L9.37 45.31L9.37 31.25L0 31.25L0 29.68L9.37 29.68C10.23 29.68 10.93 30.38 10.93 31.25L10.93 45.31C10.93 46.17 10.23 46.87 9.37 46.87Z" fill="#87CEEB" fill-opacity="1.000000" fill-rule="nonzero"/>
	<path id="path1324" d="M48.43 26.56L10.93 26.56L10.93 25L48.43 25L48.43 26.56Z" fill="#87CEEB" fill-opacity="1.000000" fill-rule="nonzero"/>
	<path id="path1326" d="M21.87 16.4L20.31 16.4L20.31 0L28.12 0L28.12 10.93L26.56 10.93L26.56 1.56L21.87 1.56L21.87 16.4Z" fill="#87CEEB" fill-opacity="1.000000" fill-rule="nonzero"/>
	<path id="path1328" d="M34.37 10.93L32.81 10.93L32.81 1.56L31.25 1.56L31.25 10.93L29.68 10.93L29.68 0L34.37 0L34.37 10.93Z" fill="#87CEEB" fill-opacity="1.000000" fill-rule="nonzero"/>
	<path id="path1330" d="M40.62 17.18L39.06 17.18L39.06 9.85L37.5 9.07L37.5 17.18L35.93 17.18L35.93 6.54L40.62 8.89L40.62 17.18Z" fill="#87CEEB" fill-opacity="1.000000" fill-rule="nonzero"/>
	<path id="path1332" d="M28.12 25.78L26.56 25.78C26.56 22.65 23.75 19.53 20.31 19.53C16.86 19.53 14.06 22.65 14.06 25.78L12.5 25.78C12.5 21.09 16 17.96 20.31 17.96C24.62 17.96 28.12 21.09 28.12 25.78Z" fill="#87CEEB" fill-opacity="1.000000" fill-rule="nonzero"/>
	<path id="path1334" d="M25 4.68L23.43 4.68L23.43 3.12L25 3.12L25 4.68Z" fill="#87CEEB" fill-opacity="1.000000" fill-rule="nonzero"/>
	<path id="path1336" d="M25 7.81L23.43 7.81L23.43 6.25L25 6.25L25 7.81Z" fill="#87CEEB" fill-opacity="1.000000" fill-rule="nonzero"/>
	<path id="path1338" d="M25 10.93L23.43 10.93L23.43 9.37L25 9.37L25 10.93Z" fill="#87CEEB" fill-opacity="1.000000" fill-rule="nonzero"/>
	<path id="path1340" d="M39.84 26.56C35.96 26.56 32.81 23.4 32.81 19.53L32.81 14.06L25 14.06L25 20.31L23.43 20.31L23.43 12.5L34.37 12.5L34.37 19.53C34.37 22.54 36.82 25 39.84 25C42.66 25 44.83 22.66 45.24 20.31L35.93 20.31L35.93 18.75L46.87 18.75L46.87 19.53C46.87 23.27 43.58 26.56 39.84 26.56Z" fill="#87CEEB" fill-opacity="1.000000" fill-rule="nonzero"/>
	<path id="path1342" d="M33.59 17.18L26.56 17.18L26.56 15.62L33.59 15.62L33.59 17.18Z" fill="#87CEEB" fill-opacity="1.000000" fill-rule="nonzero"/>
	<path id="path1344" d="M33.59 20.31L28.12 20.31L28.12 18.75L33.59 18.75L33.59 20.31Z" fill="#87CEEB" fill-opacity="1.000000" fill-rule="nonzero"/>
	<path id="path1346" d="M45.31 17.18L43.75 17.18L43.75 14.06L39.84 14.06L39.84 12.5L45.31 12.5L45.31 17.18Z" fill="#87CEEB" fill-opacity="1.000000" fill-rule="nonzero"/>
	<path id="path1348" d="M18.75 25.78L17.18 25.78L17.18 21.87L18.75 21.87L18.75 25.78Z" fill="#87CEEB" fill-opacity="1.000000" fill-rule="nonzero"/>
	<path id="path1350" d="M21.87 23.43L20.31 23.43L20.31 21.87L21.87 21.87L21.87 23.43Z" fill="#87CEEB" fill-opacity="1.000000" fill-rule="nonzero"/>
</svg>
