<svg xmlns="http://www.w3.org/2000/svg" width="17.5" height="19.5" viewBox="0 0 17.5 19.5">
  <g id="document-file-download-arrow-down" transform="translate(0.75 0.75)">
    <path id="Path" d="M5.5,5.5H2a2,2,0,0,1-2-2V0" transform="translate(10.5)" fill="none" stroke="#fff" stroke-linecap="round" stroke-linejoin="round" stroke-miterlimit="10" stroke-width="1.5"/>
    <path id="Path-2" data-name="Path" d="M.5,0V5" transform="translate(7.5 12)" fill="none" stroke="#fff" stroke-linecap="round" stroke-linejoin="round" stroke-miterlimit="10" stroke-width="1.5"/>
    <path id="Path-3" data-name="Path" d="M0,0,2,2,4,0" transform="translate(6 15)" fill="none" stroke="#fff" stroke-linecap="round" stroke-linejoin="round" stroke-miterlimit="10" stroke-width="1.5"/>
    <path id="Path-4" data-name="Path" d="M12,18h1a3,3,0,0,0,3-3V5.243a3,3,0,0,0-.879-2.121L12.879.879A3,3,0,0,0,10.757,0H3A3,3,0,0,0,0,3V15a3,3,0,0,0,3,3H4" fill="none" stroke="#fff" stroke-linecap="round" stroke-linejoin="round" stroke-miterlimit="10" stroke-width="1.5"/>
  </g>
</svg>
