<svg xmlns="http://www.w3.org/2000/svg" width="50.003" height="50" viewBox="0 0 50.003 50">
  <g id="Group_4" data-name="Group 4" transform="translate(0 0)">
    <path id="path240" d="M-25,50A25.03,25.03,0,0,0,0,25,25.03,25.03,0,0,0-25,0,25.029,25.029,0,0,0-50,25,25.029,25.029,0,0,0-25,50Zm0-45.455A20.478,20.478,0,0,1-4.548,25,20.477,20.477,0,0,1-25,45.454,20.476,20.476,0,0,1-45.455,25,20.477,20.477,0,0,1-25,4.546Z" transform="translate(0 50) rotate(-180)" fill="#fff"/>
    <path id="path242" d="M-14.147,18.666h6.612a2.99,2.99,0,0,1,2.991,2.983,2.991,2.991,0,0,1-2.991,2.991H-19.412v4.546h6.3v3.592h4.545V29.185h1.034A7.545,7.545,0,0,0,0,21.648,7.538,7.538,0,0,0-7.535,14.12h-6.612a3,3,0,0,1-2.992-2.991,2.992,2.992,0,0,1,2.992-2.991H-2.271V3.592h-6.3V0h-4.545V3.592h-1.034a7.546,7.546,0,0,0-7.536,7.537,7.546,7.546,0,0,0,7.536,7.537" transform="translate(14.161 41.389) rotate(-180)" fill="#fff"/>
  </g>
</svg>
