<svg xmlns="http://www.w3.org/2000/svg" width="14" height="20" viewBox="0 0 14 20">
  <g id="Iphone_Mobile_Phone_Copy" data-name="Iphone, Mobile, Phone Copy" transform="translate(1 1)">
    <path id="Path" d="M10,18H2a2,2,0,0,1-2-2V2A2,2,0,0,1,2,0h8a2,2,0,0,1,2,2V16A2,2,0,0,1,10,18Z" fill="none" stroke="#03572d" stroke-linecap="round" stroke-linejoin="round" stroke-miterlimit="10" stroke-width="2"/>
    <path id="Path-2" data-name="Path" d="M.5.25A.25.25,0,1,0,.75.5.249.249,0,0,0,.5.25" transform="translate(5.5 14)" fill="none" stroke="#03572d" stroke-linecap="round" stroke-linejoin="round" stroke-miterlimit="10" stroke-width="2"/>
    <path id="Path-3" data-name="Path" d="M0,.5H2.5" transform="translate(4.75 2.5)" fill="none" stroke="#03572d" stroke-linecap="round" stroke-linejoin="round" stroke-miterlimit="10" stroke-width="2"/>
  </g>
</svg>
