<svg xmlns="http://www.w3.org/2000/svg" width="20.008" height="17" viewBox="0 0 20.008 17">
  <g id="Mail_Email_Letter.9_Copy" data-name="Mail, Email, Letter.9 Copy" transform="translate(1 1)">
    <g id="Group">
      <path id="Path" d="M15.739,5.441l1.141-.773A2.554,2.554,0,0,0,18,2.554h0A2.554,2.554,0,0,0,15.447,0H2.554A2.554,2.554,0,0,0,0,2.554H0A2.554,2.554,0,0,0,1.121,4.668l1.141.773a12.01,12.01,0,0,0,13.477,0Z" transform="translate(0.007)" fill="none" stroke="#03572d" stroke-linecap="round" stroke-linejoin="round" stroke-miterlimit="10" stroke-width="2"/>
      <path id="Path-2" data-name="Path" d="M0,0V9.446a3,3,0,0,0,3,3H15a3,3,0,0,0,3-3V0" transform="translate(0 2.554)" fill="none" stroke="#03572d" stroke-linecap="round" stroke-linejoin="round" stroke-miterlimit="10" stroke-width="2"/>
    </g>
  </g>
</svg>
