<svg width="53.333359" height="50.000000" viewBox="0 0 53.3334 50" fill="none" xmlns="http://www.w3.org/2000/svg" xmlns:xlink="http://www.w3.org/1999/xlink">
	<desc>
			Created with Pixso.
	</desc>
	<defs/>
	<path id="path1196" d="M43.33 20.83C43.19 20.83 43.05 20.79 42.93 20.73C42.66 20.58 42.5 20.3 42.5 20L42.5 18.33L26.66 18.33L26.66 16.66L43.33 16.66C43.79 16.66 44.16 17.04 44.16 17.5L44.16 18.48L50.94 14.16L44.16 9.85L44.16 10.83C44.16 11.29 43.79 11.66 43.33 11.66L33.33 11.66L33.33 10L42.5 10L42.5 8.33C42.5 8.03 42.66 7.74 42.93 7.6C43.19 7.45 43.52 7.46 43.78 7.63L52.94 13.46C53.18 13.61 53.33 13.88 53.33 14.16C53.33 14.45 53.18 14.71 52.94 14.87L43.78 20.7C43.64 20.79 43.48 20.83 43.33 20.83Z" fill="#87CEEB" fill-opacity="1.000000" fill-rule="nonzero"/>
	<path id="path1198" d="M9.99 50L8.33 50L8.33 31.66L9.99 31.66L9.99 50Z" fill="#87CEEB" fill-opacity="1.000000" fill-rule="nonzero"/>
	<path id="path1200" d="M9.99 15L8.33 15L8.33 13.33L9.99 13.33L9.99 15Z" fill="#87CEEB" fill-opacity="1.000000" fill-rule="nonzero"/>
	<path id="path1202" d="M11.66 30L4.16 30L4.16 28.33L11.66 28.33L11.66 30Z" fill="#87CEEB" fill-opacity="1.000000" fill-rule="nonzero"/>
	<path id="path1204" d="M4.99 50L3.33 50L3.33 30.83L4.99 30.83L4.99 50Z" fill="#87CEEB" fill-opacity="1.000000" fill-rule="nonzero"/>
	<path id="path1206" d="M5 31.66L0 31.66L0 14.16C0 11.86 1.86 10 4.16 10L31.66 10L31.66 11.66L4.16 11.66C2.78 11.66 1.66 12.78 1.66 14.16L1.66 30L3.33 30L3.33 16.66L5 16.66L5 31.66Z" fill="#87CEEB" fill-opacity="1.000000" fill-rule="nonzero"/>
	<path id="path1208" d="M15 50L13.33 50L13.33 17.5C13.33 15.2 15.2 13.33 17.5 13.33L40.83 13.33L40.83 15L17.5 15C16.12 15 15 16.12 15 17.5L15 50Z" fill="#87CEEB" fill-opacity="1.000000" fill-rule="nonzero"/>
	<path id="path1210" d="M5 4.16675C5 6.46423 6.86917 8.33337 9.16667 8.33337C11.4642 8.33337 13.3333 6.46423 13.3333 4.16675C13.3333 1.87 11.4642 0 9.16667 0C6.86917 0 5 1.87 5 4.16675ZM6.66667 4.16675C6.66667 2.78833 7.78833 1.66675 9.16667 1.66675C10.545 1.66675 11.6667 2.78833 11.6667 4.16675C11.6667 5.5459 10.545 6.66675 9.16667 6.66675C7.78833 6.66675 6.66667 5.5459 6.66667 4.16675Z" clip-rule="evenodd" fill="#87CEEB" fill-opacity="1.000000" fill-rule="evenodd"/>
	<path id="path1212" d="M44.16 17.5L42.5 17.5L42.5 13.33L44.16 13.33L44.16 17.5Z" fill="#87CEEB" fill-opacity="1.000000" fill-rule="nonzero"/>
	<path id="path1214" d="M35 35C34.86 35 34.72 34.96 34.59 34.89C34.33 34.75 34.16 34.47 34.16 34.16L34.16 32.5L16.66 32.5L16.66 30.83L35 30.83C35.46 30.83 35.83 31.2 35.83 31.66L35.83 32.64L42.61 28.33L35.83 24.01L35.83 25C35.83 25.46 35.46 25.83 35 25.83L16.66 25.83L16.66 24.16L34.16 24.16L34.16 22.5C34.16 22.19 34.33 21.91 34.59 21.77C34.86 21.62 35.18 21.63 35.44 21.79L44.61 27.63C44.85 27.78 45 28.04 45 28.33C45 28.61 44.85 28.88 44.61 29.03L35.44 34.87C35.31 34.95 35.15 35 35 35Z" fill="#87CEEB" fill-opacity="1.000000" fill-rule="nonzero"/>
	<path id="path1216" d="M35.83 31.66L34.16 31.66L34.16 27.5L35.83 27.5L35.83 31.66Z" fill="#87CEEB" fill-opacity="1.000000" fill-rule="nonzero"/>
	<path id="path1218" d="M26.66 49.16C26.52 49.16 26.39 49.13 26.26 49.06C25.99 48.91 25.83 48.63 25.83 48.33L25.83 46.66L16.66 46.66L16.66 45L26.66 45C27.12 45 27.5 45.37 27.5 45.83L27.5 46.81L34.28 42.5L27.5 38.18L27.5 39.16C27.5 39.62 27.12 40 26.66 40L16.66 40L16.66 38.33L25.83 38.33L25.83 36.66C25.83 36.36 25.99 36.08 26.26 35.93C26.53 35.78 26.85 35.79 27.11 35.96L36.28 41.79C36.52 41.95 36.66 42.21 36.66 42.5C36.66 42.78 36.52 43.05 36.28 43.2L27.11 49.03C26.97 49.12 26.82 49.16 26.66 49.16Z" fill="#87CEEB" fill-opacity="1.000000" fill-rule="nonzero"/>
	<path id="path1220" d="M27.5 45.83L25.83 45.83L25.83 41.66L27.5 41.66L27.5 45.83Z" fill="#87CEEB" fill-opacity="1.000000" fill-rule="nonzero"/>
	<path id="path1222" d="M18.33 18.33L16.66 18.33L16.66 16.66L18.33 16.66L18.33 18.33Z" fill="#87CEEB" fill-opacity="1.000000" fill-rule="nonzero"/>
	<path id="path1224" d="M21.66 18.33L20 18.33L20 16.66L21.66 16.66L21.66 18.33Z" fill="#87CEEB" fill-opacity="1.000000" fill-rule="nonzero"/>
	<path id="path1226" d="M25 18.33L23.33 18.33L23.33 16.66L25 16.66L25 18.33Z" fill="#87CEEB" fill-opacity="1.000000" fill-rule="nonzero"/>
</svg>
