<svg xmlns="http://www.w3.org/2000/svg" width="51.071" height="51.096" viewBox="0 0 51.071 51.096">
  <g id="setting-edit-filter-gear.1" transform="translate(1.555 1.521)">
    <g id="Group">
      <path id="Path" d="M6.187,1.061a3.624,3.624,0,1,1-5.125,0,3.624,3.624,0,0,1,5.125,0" transform="translate(11.58 29.19)" fill="none" stroke="#fff" stroke-linecap="round" stroke-linejoin="round" stroke-miterlimit="10" stroke-width="3"/>
      <path id="Path-2" data-name="Path" d="M19.918.254l2.445.816a1.374,1.374,0,0,1,.939,1.3V4.715A2.449,2.449,0,0,0,25.7,7.163l2.219.048a1.37,1.37,0,0,1,1.2.757l1.152,2.3a1.375,1.375,0,0,1-.256,1.584L28.35,13.513a2.449,2.449,0,0,0-.037,3.424l1.533,1.6a1.366,1.366,0,0,1,.309,1.381l-.816,2.445a1.374,1.374,0,0,1-1.3.939H25.694A2.449,2.449,0,0,0,23.246,25.7L23.2,27.918a1.37,1.37,0,0,1-.757,1.2l-2.3,1.152a1.375,1.375,0,0,1-1.584-.256L16.9,28.353a2.449,2.449,0,0,0-3.424-.037l-1.6,1.533a1.366,1.366,0,0,1-1.381.309l-2.445-.816a1.374,1.374,0,0,1-.939-1.3V25.7A2.449,2.449,0,0,0,4.71,23.249L2.494,23.2a1.371,1.371,0,0,1-1.2-.757l-1.152-2.3A1.375,1.375,0,0,1,.4,18.555L2.059,16.9A2.449,2.449,0,0,0,2.1,13.475l-1.533-1.6a1.366,1.366,0,0,1-.309-1.381L1.07,8.046a1.374,1.374,0,0,1,1.3-.939H4.715A2.449,2.449,0,0,0,7.163,4.713l.048-2.219a1.37,1.37,0,0,1,.757-1.2l2.3-1.152A1.375,1.375,0,0,1,11.857.4l1.656,1.659a2.449,2.449,0,0,0,3.424.037l1.6-1.533A1.37,1.37,0,0,1,19.918.254Z" transform="translate(0 17.608)" fill="none" stroke="#fff" stroke-linecap="round" stroke-linejoin="round" stroke-miterlimit="10" stroke-width="3"/>
      <path id="Path-3" data-name="Path" d="M12.012,20.721l2.123-.571a1.133,1.133,0,0,0,.824-.912l.4-2.477a1.693,1.693,0,0,1,1.4-1.4l2.475-.4a1.133,1.133,0,0,0,.912-.824l.571-2.123a1.132,1.132,0,0,0-.379-1.171L18.393,9.254a1.7,1.7,0,0,1-.512-1.909l.893-2.352a1.13,1.13,0,0,0-.259-1.2L16.961,2.238a1.135,1.135,0,0,0-1.2-.259L12.27,3.3,9.913.417A1.133,1.133,0,0,0,8.742.038L6.62.609a1.133,1.133,0,0,0-.824.912L5.393,4A1.693,1.693,0,0,1,4,5.4l-2.475.4a1.133,1.133,0,0,0-.912.824L.038,8.745A1.137,1.137,0,0,0,.414,9.916L2.356,11.5a1.691,1.691,0,0,1,.509,1.909l-.893,2.352a1.13,1.13,0,0,0,.259,1.2l1.555,1.555a1.135,1.135,0,0,0,1.2.259l2.355-.893a1.687,1.687,0,0,1,1.907.512l1.589,1.944a1.139,1.139,0,0,0,1.173.379Z" transform="translate(27.242)" fill="none" stroke="#fff" stroke-linecap="round" stroke-linejoin="round" stroke-miterlimit="10" stroke-width="3"/>
    </g>
  </g>
</svg>
