<svg xmlns="http://www.w3.org/2000/svg" width="33.741" height="50" viewBox="0 0 33.741 50">
  <path id="path1764" d="M-16.876,50a1.876,1.876,0,0,0,1.621-.933,50.122,50.122,0,0,1,6.19-7.824l.051-.056a49.674,49.674,0,0,0,6.452-8.3A18.616,18.616,0,0,0-.017,22.553,15.6,15.6,0,0,0-3.423,13.4,16.148,16.148,0,0,0-11.417,8a18.5,18.5,0,0,0-4.325-.754V7.205a5.019,5.019,0,0,1,4.948-4.956A1.126,1.126,0,0,0-9.668,1.125,1.126,1.126,0,0,0-10.793,0a7.148,7.148,0,0,0-5.08,2.125A7.148,7.148,0,0,0-18,7.205v.036A18.806,18.806,0,0,0-22.323,8a16.177,16.177,0,0,0-8,5.408,15.571,15.571,0,0,0-3.4,9.141A18.617,18.617,0,0,0-31.18,32.88a49.705,49.705,0,0,0,6.455,8.313,50.643,50.643,0,0,1,6.212,7.83l.022.043a1.964,1.964,0,0,0,.682.682A1.867,1.867,0,0,0-16.876,50Zm1.135-39a15,15,0,0,1,3.236.58A12.2,12.2,0,0,1-3.768,22.705c.27,6.747-3.657,11.109-7.814,15.727l-.226.251a72.109,72.109,0,0,0-5.064,6.023,72.777,72.777,0,0,0-5.058-6.023l-.252-.28c-4.152-4.611-8.073-8.966-7.8-15.7a12.2,12.2,0,0,1,8.736-11.124A15.024,15.024,0,0,1-18,10.993V21.45l-7.009,7.017a1.12,1.12,0,0,0-.332.8,1.12,1.12,0,0,0,.332.8,1.086,1.086,0,0,0,.789.332,1.124,1.124,0,0,0,.8-.332L-18,24.643V36.58a1.129,1.129,0,0,0,1.125,1.131,1.133,1.133,0,0,0,1.132-1.131V19.389l5.42,5.413a1.107,1.107,0,0,0,.8.332,1.126,1.126,0,0,0,.8-.332,1.115,1.115,0,0,0,.327-.795,1.115,1.115,0,0,0-.327-.795L-15.741,16.2Z" transform="translate(0 50) rotate(-180)" fill="#fff"/>
</svg>
