<svg width="50.000000" height="50.000000" viewBox="0 0 50 50" fill="none" xmlns="http://www.w3.org/2000/svg" xmlns:xlink="http://www.w3.org/1999/xlink">
	<desc>
			Created with Pixso.
	</desc>
	<defs/>
	<path id="path110" d="M17.9688 7.03125C17.9688 10.9086 21.1227 14.0625 25 14.0625C28.8773 14.0625 32.0312 10.9086 32.0312 7.03125C32.0312 3.15393 28.8773 0 25 0C21.1227 0 17.9688 3.15393 17.9688 7.03125ZM19.5312 7.03125C19.5312 4.01636 21.9852 1.5625 25 1.5625C28.0148 1.5625 30.4688 4.01636 30.4688 7.03125C30.4688 10.0461 28.0148 12.5 25 12.5C21.9852 12.5 19.5312 10.0461 19.5312 7.03125Z" clip-rule="evenodd" fill="#87CEEB" fill-opacity="1.000000" fill-rule="evenodd"/>
	<path id="path112" d="M32.03 37.5L17.96 37.5L17.96 36.71C17.96 33.25 18.9 30 19.72 27.12C20.43 24.68 21.09 22.37 21.09 20.31C21.09 15.81 19.58 11.23 19.57 11.18L21.05 10.69C21.11 10.88 22.65 15.55 22.65 20.31C22.65 22.59 21.96 25 21.23 27.55C20.46 30.23 19.67 32.99 19.54 35.93L30.45 35.93C30.32 32.99 29.53 30.23 28.76 27.55C28.03 25 27.34 22.59 27.34 20.31C27.34 15.55 28.88 10.88 28.94 10.69L30.42 11.18C30.41 11.23 28.9 15.81 28.9 20.31C28.9 22.37 29.56 24.68 30.27 27.12C31.09 30 32.03 33.25 32.03 36.71L32.03 37.5Z" fill="#87CEEB" fill-opacity="1.000000" fill-rule="nonzero"/>
	<path id="path114" d="M38.51 41.95L34.05 37.5L15.94 37.5L11.48 41.95L10.38 40.85L15.3 35.93L34.69 35.93L39.61 40.85L38.51 41.95Z" fill="#87CEEB" fill-opacity="1.000000" fill-rule="nonzero"/>
	<path id="path116" d="M41.4 50L8.59 50L8.59 46.09L10.15 46.09L10.15 48.43L39.84 48.43L39.84 46.09L41.4 46.09L41.4 50Z" fill="#87CEEB" fill-opacity="1.000000" fill-rule="nonzero"/>
	<path id="path118" d="M7.8125 46.875L42.1875 46.875C43.9109 46.875 45.3125 45.4734 45.3125 43.75C45.3125 42.0266 43.9109 40.625 42.1875 40.625L7.8125 40.625C6.08905 40.625 4.6875 42.0266 4.6875 43.75C4.6875 45.4734 6.08905 46.875 7.8125 46.875ZM6.25 43.75C6.25 42.8883 6.95081 42.1875 7.8125 42.1875L42.1875 42.1875C43.0492 42.1875 43.75 42.8883 43.75 43.75C43.75 44.6117 43.0492 45.3125 42.1875 45.3125L7.8125 45.3125C6.95081 45.3125 6.25 44.6117 6.25 43.75Z" clip-rule="evenodd" fill="#87CEEB" fill-opacity="1.000000" fill-rule="evenodd"/>
	<path id="path120" d="M22.65 7.03L21.09 7.03C21.09 4.87 22.84 3.12 25 3.12L25 4.68C23.7 4.68 22.65 5.73 22.65 7.03Z" fill="#87CEEB" fill-opacity="1.000000" fill-rule="nonzero"/>
	<path id="path122" d="M25.78 36.71L24.21 36.71L24.21 32.81L25.78 32.81L25.78 36.71Z" fill="#87CEEB" fill-opacity="1.000000" fill-rule="nonzero"/>
	<path id="path124" d="M50 50L0 50L0 48.43L50 48.43L50 50Z" fill="#87CEEB" fill-opacity="1.000000" fill-rule="nonzero"/>
</svg>
