<svg width="50.000000" height="50.000000" viewBox="0 0 50 50" fill="none" xmlns="http://www.w3.org/2000/svg" xmlns:xlink="http://www.w3.org/1999/xlink">
	<desc>
			Created with Pixso.
	</desc>
	<defs/>
	<path id="path734" d="M6.25 35.93L4.68 35.93L4.68 27.44L1.58 15.03C1.54 14.88 1.55 14.73 1.6 14.59L3.94 7.56C4 7.38 4.13 7.22 4.3 7.13L16.8 0.1C17.04 -0.04 17.34 -0.04 17.58 0.1C17.82 0.24 17.96 0.5 17.96 0.78L17.96 3.39L22.96 5.53C23.05 5.57 23.13 5.62 23.2 5.69L31.02 13.51C31.25 13.74 31.31 14.11 31.16 14.41L29.6 17.53C29.44 17.86 29.07 18.03 28.71 17.94L19.62 15.67L15.19 17.88L14.49 16.48L19.18 14.14C19.34 14.06 19.54 14.03 19.72 14.08L28.48 16.27L29.51 14.21L22.21 6.9L16.87 4.62C16.59 4.5 16.4 4.21 16.4 3.9L16.4 2.11L5.33 8.34L3.15 14.87L6.22 27.15C6.24 27.21 6.25 27.28 6.25 27.34L6.25 35.93Z" fill="#87CEEB" fill-opacity="1.000000" fill-rule="nonzero"/>
	<path id="path736" d="M25 35.93L23.43 35.93L23.43 29.19L11.12 14.56L12.31 13.55L24.81 28.4C24.93 28.54 25 28.72 25 28.9L25 35.93Z" fill="#87CEEB" fill-opacity="1.000000" fill-rule="nonzero"/>
	<path id="path738" d="M20.31 8.59L18.75 8.59L18.75 7.03L20.31 7.03L20.31 8.59Z" fill="#87CEEB" fill-opacity="1.000000" fill-rule="nonzero"/>
	<path id="path740" d="M15.62 35.93L14.06 35.93L14.06 34.37L15.62 34.37L15.62 35.93Z" fill="#87CEEB" fill-opacity="1.000000" fill-rule="nonzero"/>
	<path id="path742" d="M12.5 35.93L10.93 35.93L10.93 34.37L12.5 34.37L12.5 35.93Z" fill="#87CEEB" fill-opacity="1.000000" fill-rule="nonzero"/>
	<path id="path744" d="M18.75 35.93L17.18 35.93L17.18 34.37L18.75 34.37L18.75 35.93Z" fill="#87CEEB" fill-opacity="1.000000" fill-rule="nonzero"/>
	<path id="path746" d="M0 50L29.6875 50L29.6875 43.75C29.6875 42.0266 28.2859 40.625 26.5625 40.625L26.5625 37.5L3.125 37.5L3.125 40.625C1.40155 40.625 0 42.0266 0 43.75L0 50ZM1.5625 48.4375L28.125 48.4375L28.125 43.75C28.125 42.8883 27.4242 42.1875 26.5625 42.1875L25 42.1875L25 39.0625L4.6875 39.0625L4.6875 42.1875L3.125 42.1875C2.26331 42.1875 1.5625 42.8883 1.5625 43.75L1.5625 48.4375Z" clip-rule="evenodd" fill="#87CEEB" fill-opacity="1.000000" fill-rule="evenodd"/>
	<path id="path748" d="M23.43 42.18L6.25 42.18L6.25 40.62L23.43 40.62L23.43 42.18Z" fill="#87CEEB" fill-opacity="1.000000" fill-rule="nonzero"/>
	<path id="path750" d="M35.93 50L34.37 50L34.37 39.84L39.84 39.84C41.99 39.84 43.75 38.09 43.75 35.93L43.75 28.12L48.43 28.12L48.43 27.51L43.75 17.35L43.75 17.18C43.75 8.57 36.74 1.56 28.12 1.56L28.12 0C37.54 0 45.21 7.61 45.31 17.01L50 27.17L50 29.68L45.31 29.68L45.31 35.93C45.31 38.95 42.85 41.4 39.84 41.4L35.93 41.4L35.93 50Z" fill="#87CEEB" fill-opacity="1.000000" fill-rule="nonzero"/>
	<path id="path752" d="M35.15 41.4L32.81 41.4L32.81 39.84L35.15 39.84L35.15 41.4Z" fill="#87CEEB" fill-opacity="1.000000" fill-rule="nonzero"/>
	<path id="path754" d="M28.12 1.56L21.09 1.56L21.09 0L28.12 0L28.12 1.56Z" fill="#87CEEB" fill-opacity="1.000000" fill-rule="nonzero"/>
</svg>
