<svg width="50.000000" height="50.000000" viewBox="0 0 50 50" fill="none" xmlns="http://www.w3.org/2000/svg" xmlns:xlink="http://www.w3.org/1999/xlink">
	<desc>
			Created with Pixso.
	</desc>
	<defs/>
	<path id="path728" d="M28.9 45.31L21.09 45.31L21.09 14.84L22.65 14.84L22.65 43.75L27.34 43.75L27.34 14.84L28.9 14.84L28.9 45.31Z" fill="#87CEEB" fill-opacity="1.000000" fill-rule="nonzero"/>
	<path id="path730" d="M28.9 8.59L27.34 8.59L27.34 3.9C27.34 2.61 26.29 1.56 25 1.56C23.7 1.56 22.65 2.61 22.65 3.9L22.65 8.59L21.09 8.59L21.09 3.9C21.09 1.75 22.84 0 25 0C27.15 0 28.9 1.75 28.9 3.9L28.9 8.59Z" fill="#87CEEB" fill-opacity="1.000000" fill-rule="nonzero"/>
	<path id="path732" d="M47.65 50L2.34 50L2.34 49.21C2.34 46.2 4.79 43.75 7.81 43.75L19.53 43.75L19.53 45.31L7.81 45.31C5.92 45.31 4.34 46.65 3.98 48.43L46.01 48.43C45.65 46.65 44.07 45.31 42.18 45.31L30.46 45.31L30.46 43.75L42.18 43.75C45.2 43.75 47.65 46.2 47.65 49.21L47.65 50Z" fill="#87CEEB" fill-opacity="1.000000" fill-rule="nonzero"/>
	<path id="path734" d="M25.78 4.68L24.21 4.68L24.21 3.12L25.78 3.12L25.78 4.68Z" fill="#87CEEB" fill-opacity="1.000000" fill-rule="nonzero"/>
	<path id="path736" d="M19.5312 11.7188C19.5312 14.7336 21.9852 17.1875 25 17.1875C28.0148 17.1875 30.4688 14.7336 30.4688 11.7188C30.4688 8.70386 28.0148 6.25 25 6.25C21.9852 6.25 19.5312 8.70386 19.5312 11.7188ZM21.0938 11.7188C21.0938 9.56482 22.8461 7.8125 25 7.8125C27.1539 7.8125 28.9062 9.56482 28.9062 11.7188C28.9062 13.8727 27.1539 15.625 25 15.625C22.8461 15.625 21.0938 13.8727 21.0938 11.7188Z" clip-rule="evenodd" fill="#87CEEB" fill-opacity="1.000000" fill-rule="evenodd"/>
	<path id="path738" d="M47.65 14.06L44.53 14.06L44.53 12.5L47.65 12.5C48.08 12.5 48.43 12.15 48.43 11.71C48.43 11.28 48.08 10.93 47.65 10.93L29.68 10.93L29.68 9.37L47.65 9.37C48.94 9.37 50 10.42 50 11.71C50 13.01 48.94 14.06 47.65 14.06Z" fill="#87CEEB" fill-opacity="1.000000" fill-rule="nonzero"/>
	<path id="path740" d="M39.84 14.06L29.68 14.06L29.68 12.5L39.84 12.5L39.84 14.06Z" fill="#87CEEB" fill-opacity="1.000000" fill-rule="nonzero"/>
	<path id="path742" d="M5.46 14.06L2.34 14.06C1.05 14.06 0 13.01 0 11.71C0 10.42 1.05 9.37 2.34 9.37L20.31 9.37L20.31 10.93L2.34 10.93C1.91 10.93 1.56 11.28 1.56 11.71C1.56 12.15 1.91 12.5 2.34 12.5L5.46 12.5L5.46 14.06Z" fill="#87CEEB" fill-opacity="1.000000" fill-rule="nonzero"/>
	<path id="path744" d="M20.31 14.06L10.15 14.06L10.15 12.5L20.31 12.5L20.31 14.06Z" fill="#87CEEB" fill-opacity="1.000000" fill-rule="nonzero"/>
	<path id="path746" d="M0 27.3438C0 31.6516 3.50469 35.1562 7.8125 35.1562C12.1203 35.1562 15.625 31.6516 15.625 27.3438L15.625 26.5625L0 26.5625L0 27.3438ZM7.8125 33.5938C4.63125 33.5938 1.99687 31.203 1.61172 28.125L14.0141 28.125C13.6281 31.203 10.9938 33.5938 7.8125 33.5938Z" clip-rule="evenodd" fill="#87CEEB" fill-opacity="1.000000" fill-rule="evenodd"/>
	<path id="path748" d="M1.56 28.12C1.45 28.12 1.34 28.1 1.24 28.05C0.85 27.88 0.67 27.42 0.84 27.02L7.09 12.96C7.27 12.57 7.73 12.39 8.12 12.56C8.52 12.74 8.7 13.2 8.52 13.59L2.27 27.66C2.14 27.95 1.86 28.12 1.56 28.12Z" fill="#87CEEB" fill-opacity="1.000000" fill-rule="nonzero"/>
	<path id="path750" d="M14.06 28.12C13.76 28.12 13.47 27.95 13.34 27.66L7.09 13.59C6.92 13.2 7.1 12.74 7.49 12.56C7.89 12.39 8.35 12.56 8.52 12.96L14.77 27.02C14.95 27.42 14.77 27.88 14.37 28.05C14.27 28.1 14.16 28.12 14.06 28.12Z" fill="#87CEEB" fill-opacity="1.000000" fill-rule="nonzero"/>
	<path id="path752" d="M34.375 27.3438C34.375 31.6516 37.8797 35.1562 42.1875 35.1562C46.4953 35.1562 50 31.6516 50 27.3438L50 26.5625L34.375 26.5625L34.375 27.3438ZM42.1875 33.5938C39.0062 33.5938 36.3719 31.203 35.9867 28.125L48.3891 28.125C48.0031 31.203 45.3688 33.5938 42.1875 33.5938Z" clip-rule="evenodd" fill="#87CEEB" fill-opacity="1.000000" fill-rule="evenodd"/>
	<path id="path754" d="M35.93 28.12C35.83 28.12 35.72 28.1 35.62 28.05C35.22 27.88 35.04 27.42 35.22 27.02L41.47 12.96C41.64 12.57 42.11 12.39 42.5 12.56C42.89 12.74 43.07 13.2 42.9 13.59L36.65 27.66C36.52 27.95 36.23 28.12 35.93 28.12Z" fill="#87CEEB" fill-opacity="1.000000" fill-rule="nonzero"/>
	<path id="path756" d="M48.43 28.12C48.13 28.12 47.85 27.95 47.72 27.66L41.47 13.59C41.29 13.2 41.47 12.74 41.87 12.56C42.26 12.39 42.72 12.56 42.9 12.96L49.15 27.02C49.32 27.42 49.14 27.88 48.75 28.05C48.65 28.1 48.54 28.12 48.43 28.12Z" fill="#87CEEB" fill-opacity="1.000000" fill-rule="nonzero"/>
	<path id="path758" d="M25.78 42.18L24.21 42.18L24.21 40.62L25.78 40.62L25.78 42.18Z" fill="#87CEEB" fill-opacity="1.000000" fill-rule="nonzero"/>
	<path id="path760" d="M25.78 39.06L24.21 39.06L24.21 37.5L25.78 37.5L25.78 39.06Z" fill="#87CEEB" fill-opacity="1.000000" fill-rule="nonzero"/>
	<path id="path762" d="M25.78 35.93L24.21 35.93L24.21 34.37L25.78 34.37L25.78 35.93Z" fill="#87CEEB" fill-opacity="1.000000" fill-rule="nonzero"/>
</svg>
