<?xml version="1.0" encoding="UTF-8"?>
<svg width="26px" height="25px" viewBox="0 0 26 25" version="1.1" xmlns="http://www.w3.org/2000/svg" xmlns:xlink="http://www.w3.org/1999/xlink">
    <title>BCCFEF44-6474-4FAB-87C3-4A9DB9DFEAC6</title>
    <g id="Page-1" stroke="none" stroke-width="1" fill="none" fill-rule="evenodd">
        <g id="-index" transform="translate(-140, -3308)" fill="#12143E" fill-rule="nonzero">
            <g id="Footer" transform="translate(-0, 2758)">
                <g id="Group-2" transform="translate(140, 550)">
                    <path d="M21.6289952,21.3016291 L17.86772,21.3016291 L17.86772,15.5005661 C17.86772,14.1172059 17.8427119,12.3364124 15.9115553,12.3364124 C13.9525002,12.3364124 13.6527794,13.8435838 13.6527794,15.3998172 L13.6527794,21.3012541 L9.89159215,21.3012541 L9.89159215,9.37181916 L13.5023535,9.37181916 L13.5023535,11.0020892 L13.5528725,11.0020892 C13.9142968,10.3935957 14.4364517,9.89302608 15.0637917,9.55367971 C15.6911317,9.21434584 16.4002823,9.04893511 17.115465,9.07508483 C20.9276362,9.07508483 21.6305033,11.5446209 21.6305033,14.7573241 L21.6289952,21.3016291 Z M5.64769741,7.74114913 C5.21599903,7.7412241 4.79396459,7.61522544 4.43499089,7.37907797 C4.07600463,7.142943 3.79620245,6.80725909 3.63092249,6.41448829 C3.46565509,6.02171749 3.42233697,5.58950961 3.50648498,5.17250157 C3.59063298,4.75549353 3.79843936,4.37242263 4.10363926,4.07173834 C4.40883916,3.77104156 4.7977221,3.56624375 5.22110119,3.48321964 C5.64449285,3.40020803 6.08335437,3.44269507 6.48221543,3.60533083 C6.88107649,3.76795409 7.22201668,4.04342615 7.46191893,4.39688487 C7.70180862,4.75035608 7.8299031,5.16595164 7.8299911,5.59110959 C7.83004133,5.87340657 7.77362849,6.15295358 7.66398223,6.41377579 C7.55433596,6.674598 7.39361779,6.91160797 7.19097642,7.11125583 C6.98833504,7.3109037 6.74772904,7.4692895 6.48293175,7.57736335 C6.21813445,7.68544969 5.93432343,7.7410991 5.64769741,7.74114913 Z M7.52829733,21.3016291 L3.76316405,21.3016291 L3.76316405,9.37181916 L7.52829733,9.37181916 L7.52829733,21.3016291 Z M23.5041034,0.00185474661 L1.87316408,0.00185474661 C1.38221273,-0.00360190753 0.909106384,0.183132433 0.557873902,0.521023819 C0.206633881,0.858913955 0.00599190122,1.32031777 0,1.8038501 L0,23.1958588 C0.00578706064,23.6796036 0.206310911,24.1413487 0.557534596,24.4795951 C0.908767078,24.8178415 1.38196139,25.0048395 1.87316408,24.9998606 L23.5041034,24.9998606 C23.9962235,25.0058394 24.4707499,24.8192164 24.8233773,24.4809701 C25.1760047,24.1428487 25.3778293,23.6806036 25.3846154,23.1958588 L25.3846154,1.80230012 C25.3777036,1.3178178 25.1756277,0.855887737 24.8230003,0.518003851 C24.4703729,0.180121215 23.9959722,-0.00607911353 23.5041034,0.000151475319" id="LinkedIn"></path>
                </g>
            </g>
        </g>
    </g>
</svg>