<svg xmlns="http://www.w3.org/2000/svg" width="34.847" height="50" viewBox="0 0 34.847 50">
  <g id="Group_5" data-name="Group 5" transform="translate(0 0)">
    <path id="path504" d="M-17.427,40.172A17.445,17.445,0,0,0,0,22.748,17.517,17.517,0,0,0-8.636,7.7V0H-26.209V7.7a17.519,17.519,0,0,0-8.638,15.049A17.441,17.441,0,0,0-17.427,40.172Zm4.475-35.858v6.032l1.218.589a13.188,13.188,0,0,1,7.42,11.814A13.126,13.126,0,0,1-17.427,35.858a13.122,13.122,0,0,1-13.1-13.109,13.2,13.2,0,0,1,7.42-11.814l1.218-.589V4.314Z" transform="translate(0 40.172) rotate(-180)" fill="#fff"/>
    <path id="path506" d="M0,3.4H-4.467V0H-8.782V3.4h-4.475V7.718H0V3.4" transform="translate(10.798 50) rotate(-180)" fill="#fff"/>
    <path id="path508" d="M-13.76,6.026A5.969,5.969,0,0,0-9.894,4.617,6.02,6.02,0,0,0-6.02,6.026,6.03,6.03,0,0,0,0,0H-4.308A1.713,1.713,0,0,1-6.02,1.712,1.713,1.713,0,0,1-7.732,0h-4.315A1.713,1.713,0,0,1-13.76,1.712,1.713,1.713,0,0,1-15.472,0h-4.315A6.031,6.031,0,0,0-13.76,6.026" transform="translate(7.533 20.073) rotate(-180)" fill="#fff"/>
  </g>
</svg>
