<svg id="Money_Banknoteб_Уну" data-name="Money, Banknoteб Уну" xmlns="http://www.w3.org/2000/svg" width="64" height="64" viewBox="0 0 64 64">
  <path id="Path" d="M0,0H64V64H0Z" fill="none"/>
  <path id="Path-2" data-name="Path" d="M21.333,34.4H5.067A5.064,5.064,0,0,1,0,29.333V5.067A5.064,5.064,0,0,1,5.067,0H45.6a5.064,5.064,0,0,1,5.067,5.067V24" transform="translate(5.333 8)" fill="none" stroke="#fff" stroke-linecap="round" stroke-linejoin="round" stroke-miterlimit="10" stroke-width="3"/>
  <path id="Path-3" data-name="Path" d="M10.811,1.856a6.334,6.334,0,1,1-8.957,0,6.337,6.337,0,0,1,8.957,0" transform="translate(24.333 19.4)" fill="none" stroke="#fff" stroke-linecap="round" stroke-linejoin="round" stroke-miterlimit="10" stroke-width="3"/>
  <path id="Path-4" data-name="Path" d="M.64,11.483a3.92,3.92,0,0,1,0-4.293C3.28,3.2,7.424,0,11.571,0S19.859,3.2,22.5,7.187a3.91,3.91,0,0,1,0,4.293c-2.645,3.989-6.787,7.187-10.931,7.187S3.28,15.472.64,11.483Z" transform="translate(35.523 37.333)" fill="none" stroke="#fff" stroke-linecap="round" stroke-linejoin="round" stroke-miterlimit="10" stroke-width="3"/>
  <path id="Path-5" data-name="Path" d="M1.645,1.021a.441.441,0,1,1-.624,0,.439.439,0,0,1,.624,0" transform="translate(45.757 45.336)" fill="none" stroke="#fff" stroke-linecap="round" stroke-linejoin="round" stroke-miterlimit="10" stroke-width="3"/>
  <path id="Path-6" data-name="Path" d="M2.667,1.333H0" transform="translate(13.333 33.333)" fill="none" stroke="#fff" stroke-linecap="round" stroke-linejoin="round" stroke-miterlimit="10" stroke-width="3"/>
  <path id="Path-7" data-name="Path" d="M2.667,1.333H0" transform="translate(45.333 14.667)" fill="none" stroke="#fff" stroke-linecap="round" stroke-linejoin="round" stroke-miterlimit="10" stroke-width="3"/>
</svg>
