<svg width="24.000000" height="24.000000" viewBox="0 0 24 24" fill="none" xmlns="http://www.w3.org/2000/svg" xmlns:xlink="http://www.w3.org/1999/xlink">
	<desc>
			Created with Pixso.
	</desc>
	<defs/>
	<path id="Path" d="M8 21C6.89 21 6 20.1 6 19L6 5C6 3.89 6.89 3 8 3L16 3C17.1 3 18 3.89 18 5L18 19C18 20.1 17.1 21 16 21L8 21Z" stroke="#87CEEB" stroke-opacity="1.000000" stroke-width="1.500000" stroke-linejoin="round"/>
	<path id="Path" d="M11.75 17.5C11.75 17.63 11.86 17.75 12 17.75C12.13 17.75 12.25 17.63 12.25 17.5C12.25 17.36 12.13 17.25 11.99 17.25C11.86 17.25 11.74 17.36 11.75 17.5Z" stroke="#87CEEB" stroke-opacity="1.000000" stroke-width="1.500000" stroke-linejoin="round"/>
	<path id="Path" d="M10.75 6L13.25 6" stroke="#87CEEB" stroke-opacity="1.000000" stroke-width="1.500000" stroke-linejoin="round" stroke-linecap="round"/>
</svg>
