<svg xmlns="http://www.w3.org/2000/svg" width="13.5" height="19.5" viewBox="0 0 13.5 19.5">
  <g id="Iphone_Mobile_Phone" data-name="Iphone, Mobile, Phone" transform="translate(0.75 0.75)">
    <path id="Path" d="M10,18H2a2,2,0,0,1-2-2V2A2,2,0,0,1,2,0h8a2,2,0,0,1,2,2V16A2,2,0,0,1,10,18Z" fill="none" stroke="#fff" stroke-linecap="round" stroke-linejoin="round" stroke-miterlimit="10" stroke-width="1.5"/>
    <path id="Path-2" data-name="Path" d="M.5.25A.25.25,0,1,0,.75.5.249.249,0,0,0,.5.25" transform="translate(5.5 14)" fill="none" stroke="#fff" stroke-linecap="round" stroke-linejoin="round" stroke-miterlimit="10" stroke-width="1.5"/>
    <path id="Path-3" data-name="Path" d="M0,.5H2.5" transform="translate(4.75 2.5)" fill="none" stroke="#fff" stroke-linecap="round" stroke-linejoin="round" stroke-miterlimit="10" stroke-width="1.5"/>
  </g>
</svg>
