<svg id="Group_6" data-name="Group 6" xmlns="http://www.w3.org/2000/svg" width="49.999" height="50" viewBox="0 0 49.999 50">
  <path id="path498" d="M-38.543,50a15.24,15.24,0,0,0,11.97-5.339l7.526-9.018,13.576.655L0,25.94-21.66,4.276-25.94,0-36.3,5.476l.654,13.569-9.018,7.528c-6.342,5.3-6.469,14.3-3.316,20.453l.323.628.628.323A18.946,18.946,0,0,0-38.543,50Zm24.91-27.679h0l-16.3,19.531a10.94,10.94,0,0,1-8.6,3.78,14.4,14.4,0,0,1-5.842-1.25c-1.937-4.32-1.972-10.684,2.53-14.444l19.532-16.305-2.812-3.365-6.291,5.255-.362-7.474,5.037-2.66,5.091,5.091,4.042,4.037-8.1,8.1,3.1,3.1,8.1-8.1,9.129,9.136-2.657,5.035-7.478-.36,5.255-6.3-3.364-2.808Z" transform="translate(0 50) rotate(-180)" fill="#fff"/>
  <path id="path500" d="M-5.643,11.24a5.659,5.659,0,0,0,3.992-1.6,5.656,5.656,0,0,0,0-7.986A5.612,5.612,0,0,0-5.643,0,5.606,5.606,0,0,0-9.635,1.654a5.657,5.657,0,0,0,0,7.988A5.669,5.669,0,0,0-5.643,11.24Zm0-6.845h0a1.274,1.274,0,0,1,.895.356,1.267,1.267,0,0,1,0,1.788,1.258,1.258,0,0,1-.894.368,1.256,1.256,0,0,1-.895-.368,1.267,1.267,0,0,1,0-1.788A1.271,1.271,0,0,1-5.644,4.4Z" transform="translate(29.232 20.771) rotate(-180)" fill="#fff"/>
  <path id="path502" d="M-6.394,4.382h2.009V6.393a2,2,0,0,1-.592,1.419l3.1,3.1A6.36,6.36,0,0,0,0,6.393V0H-6.394a6.362,6.362,0,0,0-4.518,1.875l3.1,3.1a2,2,0,0,1,1.419-.595" transform="translate(4.759 44.808) rotate(-180)" fill="#fff"/>
</svg>
