<svg id="check-list-checkmark-1" xmlns="http://www.w3.org/2000/svg" width="64" height="64" viewBox="0 0 64 64">
  <g id="Group" transform="translate(10.64 8)">
    <path id="Path" d="M10.693,0H5.333A5.315,5.315,0,0,0,0,5.333H0v32H0A5.309,5.309,0,0,0,5.333,42.64H18.667" transform="translate(0 5.333)" fill="none" stroke="#fff" stroke-linecap="round" stroke-linejoin="round" stroke-miterlimit="10" stroke-width="3"/>
    <rect id="Rectangle" width="21.333" height="10.667" rx="1" stroke-width="3" transform="translate(10.693)" stroke="#fff" stroke-linecap="round" stroke-linejoin="round" stroke-miterlimit="10" fill="none"/>
    <path id="Path-2" data-name="Path" d="M0,0H5.307A5.309,5.309,0,0,1,10.64,5.307v8" transform="translate(32.027 5.333)" fill="none" stroke="#fff" stroke-linecap="round" stroke-linejoin="round" stroke-miterlimit="10" stroke-width="3"/>
    <path id="Path-3" data-name="Path" d="M12.053.056h-.027A11.987,11.987,0,1,1,0,12.029H0A11.984,11.984,0,0,1,11.973,0V0" transform="translate(23.973 26.611)" fill="none" stroke="#fff" stroke-linecap="round" stroke-linejoin="round" stroke-miterlimit="10" stroke-width="3"/>
    <path id="Path-4" data-name="Path" d="M8.187,0,3.067,5.093,0,2.027" transform="translate(31.92 36.56)" fill="none" stroke="#fff" stroke-linecap="round" stroke-linejoin="round" stroke-miterlimit="10" stroke-width="3"/>
  </g>
  <path id="Path-5" data-name="Path" d="M0,0H64V64H0Z" fill="none"/>
</svg>
