<svg xmlns="http://www.w3.org/2000/svg" width="40.21" height="51.5" viewBox="0 0 40.21 51.5"><defs><style>.a{fill:none;stroke:#87ceeb;stroke-miterlimit:10;stroke-width:1.5px;}</style></defs><g transform="translate(0.75 0.75)"><path class="a" d="M-1.712,4.032-2.8,3.343a1.813,1.813,0,0,1-.56-2.5h0A1.813,1.813,0,0,1-.86.282L0,.789" transform="translate(19.799 33.04) rotate(-180)"/><path class="a" d="M-1.94,5.163-4.814,3.342a1.812,1.812,0,0,1-.56-2.5h0a1.812,1.812,0,0,1,2.5-.56L0,2.1" transform="translate(21.511 31.111) rotate(-180)"/><path class="a" d="M-1.94,6.3-6.6,3.343a1.813,1.813,0,0,1-.56-2.5h0a1.813,1.813,0,0,1,2.5-.56L0,3.234" transform="translate(23.451 29.182) rotate(-180)"/><path class="a" d="M-9.87,4.371-16.3.284a1.82,1.82,0,0,0-2.5.544h0a1.821,1.821,0,0,0,.565,2.54l9.923,6.185h1.99a2.177,2.177,0,0,0,1.615-.611l1.49-1.492A1.885,1.885,0,0,1-.582,7.42h0a1.885,1.885,0,0,1,.021,2.7l-3.273,3.424" transform="translate(15.521 27.257) rotate(-180)"/><path class="a" d="M0,0-.531,1.11l-.967.547H-2.857" transform="translate(33.576 23.387) rotate(-180)"/><path class="a" d="M-.876.271-.8.321A1.721,1.721,0,0,1-.271,2.7h0a1.721,1.721,0,0,1-2.377.524l-.081-.052A1.72,1.72,0,0,1-3.252.795h0A1.72,1.72,0,0,1-.876.271Z" transform="translate(7.518 27.527) rotate(-180)"/><path class="a" d="M-.876.271-.8.322A1.721,1.721,0,0,1-.27,2.7h0a1.721,1.721,0,0,1-2.377.524l-.081-.051A1.721,1.721,0,0,1-3.252.795h0A1.72,1.72,0,0,1-.876.271Z" transform="translate(16.554 33.064) rotate(-180)"/><path class="a" d="M-.817.278h0A1.768,1.768,0,0,1-.278,2.72l-.828,1.3a1.77,1.77,0,0,1-2.443.54h0a1.769,1.769,0,0,1-.539-2.443l.829-1.3A1.768,1.768,0,0,1-.817.278Z" transform="translate(10.491 29.395) rotate(-180)"/><path class="a" d="M-.817.278h0A1.77,1.77,0,0,1-.278,2.72L-1.625,4.83a1.768,1.768,0,0,1-2.442.54h0a1.768,1.768,0,0,1-.539-2.442L-3.259.817A1.768,1.768,0,0,1-.817.278Z" transform="translate(13.472 31.298) rotate(-180)"/><path class="a" d="M-.05,0V14.012" transform="translate(16.895 48.69) rotate(-180)"/><path class="a" d="M0,25.941V23.077a17.191,17.191,0,0,0-5.813-12.8L-18.766,0h-1.178L-33.115,10.274a16.984,16.984,0,0,0-5.594,12.8h0V36.29h36.29" transform="translate(0 50) rotate(-180)"/><path class="a" d="M-38.71,12.424v3.6l18.765,7.692h1.613L0,16.023V2.035H-6.736l-1.152-.559L-8.566,0" transform="translate(0 23.715) rotate(-180)"/><path class="a" d="M-.05,0V14.012" transform="translate(21.734 48.69) rotate(-180)"/><path class="a" d="M-.05,0V10.786" transform="translate(16.895 11.593) rotate(-180)"/><path class="a" d="M-.05,0V10.786" transform="translate(21.734 11.593) rotate(-180)"/></g></svg>